REM DIRINDEX 1\5,1\2\6,1\2\7,1\3\8,1\3\9,1\4\10,1\4\11,1\4\12
REM DIRNAME folder01,folder02,folder03,folder04,folder05,folder06,folder07,folder08,folder09,folder10,folder11,folder12
TITLE ""
FILE "EJE_DB3000_5th_4B_30.mp3" MP3
  TRACK 01 AUDIO
    TITLE "0:"
    INDEX 01 00:00:00
  TRACK 02 AUDIO
    TITLE "10:cjc026_09324"
    INDEX 01 00:00:05
  TRACK 03 AUDIO
    TITLE "0:"
    INDEX 01 00:00:66
  TRACK 04 AUDIO
    TITLE "11:cjc026_09325"
    INDEX 01 00:01:19
  TRACK 05 AUDIO
    TITLE "0:"
    INDEX 01 00:02:16
  TRACK 06 AUDIO
    TITLE "12:cjc026_09326"
    INDEX 01 00:02:42
  TRACK 07 AUDIO
    TITLE "0:"
    INDEX 01 00:03:29
  TRACK 08 AUDIO
    TITLE "10:cjc026_09327"
    INDEX 01 00:03:55
  TRACK 09 AUDIO
    TITLE "0:"
    INDEX 01 00:04:64
  TRACK 10 AUDIO
    TITLE "11:cjc026_09328"
    INDEX 01 00:05:14
  TRACK 11 AUDIO
    TITLE "0:"
    INDEX 01 00:06:18
  TRACK 12 AUDIO
    TITLE "12:cjc026_09329"
    INDEX 01 00:06:43
  TRACK 13 AUDIO
    TITLE "0:"
    INDEX 01 00:07:54
  TRACK 14 AUDIO
    TITLE "10:cjc026_09330"
    INDEX 01 00:08:05
  TRACK 15 AUDIO
    TITLE "0:"
    INDEX 01 00:09:14
  TRACK 16 AUDIO
    TITLE "11:cjc026_09331"
    INDEX 01 00:09:40
  TRACK 17 AUDIO
    TITLE "0:"
    INDEX 01 00:10:51
  TRACK 18 AUDIO
    TITLE "12:cjc026_09332"
    INDEX 01 00:11:01
  TRACK 19 AUDIO
    TITLE "0:"
    INDEX 01 00:12:11
  TRACK 20 AUDIO
    TITLE "10:cjc026_09333"
    INDEX 01 00:12:38
  TRACK 21 AUDIO
    TITLE "0:"
    INDEX 01 00:13:39
  TRACK 22 AUDIO
    TITLE "11:cjc026_09334"
    INDEX 01 00:13:67
  TRACK 23 AUDIO
    TITLE "0:"
    INDEX 01 00:14:64
  TRACK 24 AUDIO
    TITLE "12:cjc026_09335"
    INDEX 01 00:15:15
  TRACK 25 AUDIO
    TITLE "0:"
    INDEX 01 00:16:16
  TRACK 26 AUDIO
    TITLE "10:cjc026_09336"
    INDEX 01 00:16:42
  TRACK 27 AUDIO
    TITLE "0:"
    INDEX 01 00:17:37
  TRACK 28 AUDIO
    TITLE "11:cjc026_09337"
    INDEX 01 00:17:63
  TRACK 29 AUDIO
    TITLE "0:"
    INDEX 01 00:18:42
  TRACK 30 AUDIO
    TITLE "12:cjc026_09338"
    INDEX 01 00:18:68
  TRACK 31 AUDIO
    TITLE "0:"
    INDEX 01 00:19:63
  TRACK 32 AUDIO
    TITLE "10:cjc026_09339"
    INDEX 01 00:20:14
  TRACK 33 AUDIO
    TITLE "0:"
    INDEX 01 00:21:06
  TRACK 34 AUDIO
    TITLE "11:cjc026_09340"
    INDEX 01 00:21:31
  TRACK 35 AUDIO
    TITLE "0:"
    INDEX 01 00:22:17
  TRACK 36 AUDIO
    TITLE "12:cjc026_09341"
    INDEX 01 00:22:44
  TRACK 37 AUDIO
    TITLE "0:"
    INDEX 01 00:23:34
  TRACK 38 AUDIO
    TITLE "10:cjc026_09342"
    INDEX 01 00:23:59
  TRACK 39 AUDIO
    TITLE "0:"
    INDEX 01 00:24:57
  TRACK 40 AUDIO
    TITLE "11:cjc026_09343"
    INDEX 01 00:25:11
  TRACK 41 AUDIO
    TITLE "0:"
    INDEX 01 00:26:01
  TRACK 42 AUDIO
    TITLE "12:cjc026_09344"
    INDEX 01 00:26:28
  TRACK 43 AUDIO
    TITLE "0:"
    INDEX 01 00:27:26
  TRACK 44 AUDIO
    TITLE "10:cjc026_09345"
    INDEX 01 00:27:53
  TRACK 45 AUDIO
    TITLE "0:"
    INDEX 01 00:28:62
  TRACK 46 AUDIO
    TITLE "11:cjc026_09346"
    INDEX 01 00:29:13
  TRACK 47 AUDIO
    TITLE "0:"
    INDEX 01 00:30:14
  TRACK 48 AUDIO
    TITLE "12:cjc026_09347"
    INDEX 01 00:30:40
  TRACK 49 AUDIO
    TITLE "0:"
    INDEX 01 00:31:49
  TRACK 50 AUDIO
    TITLE "10:cjc026_09348"
    INDEX 01 00:32:01
  TRACK 51 AUDIO
    TITLE "0:"
    INDEX 01 00:32:64
  TRACK 52 AUDIO
    TITLE "11:cjc026_09349"
    INDEX 01 00:33:17
  TRACK 53 AUDIO
    TITLE "0:"
    INDEX 01 00:34:18
  TRACK 54 AUDIO
    TITLE "12:cjc026_09350"
    INDEX 01 00:34:45
  TRACK 55 AUDIO
    TITLE "0:"
    INDEX 01 00:35:33
  TRACK 56 AUDIO
    TITLE "10:cjc026_09351"
    INDEX 01 00:35:61
  TRACK 57 AUDIO
    TITLE "0:"
    INDEX 01 00:36:56
  TRACK 58 AUDIO
    TITLE "11:cjc026_09352"
    INDEX 01 00:37:07
  TRACK 59 AUDIO
    TITLE "0:"
    INDEX 01 00:38:02
  TRACK 60 AUDIO
    TITLE "12:cjc026_09353"
    INDEX 01 00:38:28
  TRACK 61 AUDIO
    TITLE "0:"
    INDEX 01 00:39:23
  TRACK 62 AUDIO
    TITLE "10:cjc026_09354"
    INDEX 01 00:39:49
  TRACK 63 AUDIO
    TITLE "0:"
    INDEX 01 00:40:38
  TRACK 64 AUDIO
    TITLE "11:cjc026_09355"
    INDEX 01 00:40:64
  TRACK 65 AUDIO
    TITLE "0:"
    INDEX 01 00:41:61
  TRACK 66 AUDIO
    TITLE "12:cjc026_09356"
    INDEX 01 00:42:12
  TRACK 67 AUDIO
    TITLE "0:"
    INDEX 01 00:43:03
  TRACK 68 AUDIO
    TITLE "10:cjc026_09357"
    INDEX 01 00:43:29
  TRACK 69 AUDIO
    TITLE "0:"
    INDEX 01 00:44:22
  TRACK 70 AUDIO
    TITLE "11:cjc026_09358"
    INDEX 01 00:44:48
  TRACK 71 AUDIO
    TITLE "0:"
    INDEX 01 00:45:63
  TRACK 72 AUDIO
    TITLE "12:cjc026_09359"
    INDEX 01 00:46:13
  TRACK 73 AUDIO
    TITLE "0:"
    INDEX 01 00:47:07
  TRACK 74 AUDIO
    TITLE "10:cjc026_09360"
    INDEX 01 00:47:34
  TRACK 75 AUDIO
    TITLE "0:"
    INDEX 01 00:48:26
  TRACK 76 AUDIO
    TITLE "11:cjc026_09361"
    INDEX 01 00:48:55
  TRACK 77 AUDIO
    TITLE "0:"
    INDEX 01 00:49:67
  TRACK 78 AUDIO
    TITLE "12:cjc026_09362"
    INDEX 01 00:50:19
  TRACK 79 AUDIO
    TITLE "0:"
    INDEX 01 00:51:13
  TRACK 80 AUDIO
    TITLE "10:cjc026_09363"
    INDEX 01 00:51:40
  TRACK 81 AUDIO
    TITLE "0:"
    INDEX 01 00:52:36
  TRACK 82 AUDIO
    TITLE "11:cjc026_09364"
    INDEX 01 00:52:59
  TRACK 83 AUDIO
    TITLE "0:"
    INDEX 01 00:54:09
  TRACK 84 AUDIO
    TITLE "12:cjc026_09365"
    INDEX 01 00:54:32
  TRACK 85 AUDIO
    TITLE "0:"
    INDEX 01 00:55:28
  TRACK 86 AUDIO
    TITLE "10:cjc026_09366"
    INDEX 01 00:55:55
  TRACK 87 AUDIO
    TITLE "0:"
    INDEX 01 00:56:49
  TRACK 88 AUDIO
    TITLE "11:cjc026_09367"
    INDEX 01 00:56:74
  TRACK 89 AUDIO
    TITLE "0:"
    INDEX 01 00:58:01
  TRACK 90 AUDIO
    TITLE "12:cjc026_09368"
    INDEX 01 00:58:24
  TRACK 91 AUDIO
    TITLE "0:"
    INDEX 01 00:59:20
